<?xml version="1.0" standalone="no"?>
<!DOCTYPE svg PUBLIC "-//W3C//DTD SVG 20010904//EN"
 "http://www.w3.org/TR/2001/REC-SVG-20010904/DTD/svg10.dtd">
<svg version="1.0" xmlns="http://www.w3.org/2000/svg"
 width="512.000000pt" height="512.000000pt" viewBox="0 0 512.000000 512.000000"
 preserveAspectRatio="xMidYMid meet">
<metadata>
Created by potrace 1.11, written by Peter Selinger 2001-2013
</metadata>
<g transform="translate(0.000000,512.000000) scale(0.100000,-0.100000)"
fill="#000000" stroke="none">
<path d="M2260 4845 c-525 -73 -985 -305 -1350 -681 -330 -339 -532 -734 -622
-1214 -29 -156 -36 -502 -14 -678 54 -421 231 -836 499 -1167 92 -114 285
-299 403 -387 322 -239 698 -392 1087 -443 153 -20 441 -20 594 0 492 64 950
286 1307 634 204 200 337 383 462 636 163 332 234 640 234 1015 0 375 -71 683
-234 1015 -125 253 -258 436 -462 636 -357 348 -815 570 -1307 634 -144 18
-462 18 -597 0z m-207 -567 c133 -70 360 -332 540 -625 45 -73 88 -133 95
-133 7 0 70 52 140 116 386 354 690 515 846 450 145 -60 156 -276 31 -611 -36
-97 -175 -391 -231 -487 -14 -26 -24 -53 -22 -60 3 -7 57 -28 119 -46 445
-130 781 -315 850 -467 22 -48 24 -113 6 -158 -33 -78 -168 -158 -339 -201
-169 -43 -458 -76 -671 -76 -65 0 -89 -4 -93 -14 -3 -7 6 -60 20 -117 59 -249
88 -446 89 -629 3 -213 -31 -325 -116 -394 -34 -27 -47 -31 -101 -31 -89 0
-169 42 -284 151 -136 128 -277 310 -412 534 -35 58 -70 110 -78 117 -11 10
-37 -9 -141 -104 -399 -365 -697 -525 -855 -459 -144 60 -155 273 -32 611 20
55 87 200 147 322 61 122 108 227 104 232 -3 6 -12 11 -19 11 -22 0 -231 66
-350 111 -325 122 -557 275 -596 395 -19 57 -8 136 24 179 103 134 377 209
859 236 111 6 206 15 211 20 6 5 -2 60 -22 141 -63 269 -76 374 -77 603 0 193
2 214 22 264 69 168 172 205 336 119z"/>
<path d="M1841 4211 c-52 -55 -66 -125 -65 -316 1 -181 19 -320 71 -541 l26
-111 85 68 c147 118 312 186 512 210 52 6 96 12 97 12 4 5 -167 264 -229 347
-99 132 -268 298 -340 333 -76 36 -122 36 -157 -2z"/>
<path d="M3523 4006 c-99 -24 -254 -113 -411 -237 -87 -68 -302 -260 -302
-269 0 -4 26 -14 58 -24 181 -57 364 -194 480 -359 l54 -78 20 31 c39 65 150
294 188 389 71 178 94 274 95 386 0 113 -13 145 -67 164 -37 13 -48 13 -115
-3z"/>
<path d="M2465 3390 c-38 -4 -90 -13 -115 -20 -122 -33 -277 -119 -353 -198
l-38 -39 163 -7 c89 -4 172 -9 183 -12 17 -4 42 19 125 112 58 64 115 130 128
145 l23 29 -23 -1 c-13 -1 -54 -5 -93 -9z"/>
<path d="M2605 3288 c-48 -51 -105 -114 -126 -139 l-38 -46 132 -17 c171 -22
452 -70 595 -102 63 -14 116 -23 119 -20 4 3 -10 29 -29 58 -79 119 -192 220
-318 283 -71 36 -189 75 -225 75 -16 0 -49 -28 -110 -92z"/>
<path d="M1520 3043 c-392 -27 -640 -93 -724 -194 -47 -56 -32 -113 52 -191
121 -114 345 -221 672 -323 58 -18 106 -31 108 -30 2 2 -4 40 -14 86 -36 177
-2 424 81 589 l35 70 -82 -2 c-46 -1 -103 -3 -128 -5z"/>
<path d="M1930 3043 c0 -8 76 -252 91 -290 9 -24 14 -19 107 102 53 70 105
137 115 150 l17 23 -97 6 c-54 3 -128 8 -165 11 -38 3 -68 2 -68 -2z"/>
<path d="M2319 2957 c-28 -34 -96 -122 -151 -194 -81 -108 -98 -137 -92 -155
37 -120 184 -458 303 -696 l90 -180 41 -7 c97 -16 273 17 397 75 203 95 352
250 433 453 32 79 60 220 60 298 0 69 -19 196 -38 253 -19 57 -6 51 -217 95
-232 49 -430 80 -732 116 -41 4 -43 3 -94 -58z"/>
<path d="M1807 2913 c-50 -107 -67 -180 -74 -305 -5 -94 8 -245 24 -270 2 -5
50 62 107 147 l102 155 -57 170 c-31 94 -59 173 -61 176 -3 2 -21 -31 -41 -73z"/>
<path d="M3500 2780 c5 -17 14 -73 20 -125 19 -159 -13 -346 -85 -502 -19 -40
-35 -77 -37 -81 -2 -4 49 -6 112 -4 495 13 850 122 850 262 0 43 -55 116 -127
170 -103 77 -323 181 -530 250 -99 33 -188 60 -196 60 -13 0 -14 -6 -7 -30z"/>
<path d="M1900 2379 c-63 -95 -98 -159 -95 -168 44 -115 205 -296 330 -369 69
-41 211 -99 220 -91 2 3 -17 45 -42 94 -66 127 -175 365 -244 534 -33 80 -61
147 -64 149 -2 2 -49 -65 -105 -149z"/>
<path d="M1632 1923 c-136 -267 -209 -473 -218 -623 -8 -114 7 -158 60 -184
36 -17 45 -18 100 -7 156 32 351 159 630 409 118 106 118 106 90 115 -219 69
-406 205 -524 380 -25 36 -48 67 -51 67 -3 0 -42 -71 -87 -157z"/>
<path d="M3200 1838 c-143 -128 -346 -218 -525 -234 -33 -3 -74 -7 -92 -10
l-32 -5 40 -66 c139 -227 254 -377 387 -505 180 -174 295 -187 348 -39 22 62
30 299 15 428 -13 104 -78 439 -89 459 -5 8 -22 -1 -52 -28z"/>
</g>
</svg>
